PathFileType	4	(X/Y/Z)	RBDS023static.trc
DataRate	CameraRate	NumFrames	NumMarkers	Units	OrigDataRate	OrigDataStartFrame	OrigNumFrames
150.000000	150.000000	4	48	mm	150.000000	93	150
Frame#	Time	L.Ankle			L.Ankle.Medial			L.ASIS			L.GTR			L.Heel.Bottom			L.Heel.Lateral			L.Heel.Top			L.HF			L.Iliac.Crest			L.Knee			L.Knee.Medial			L.MT1			L.MT2			L.MT5			L.PSIS			L.Shank.Bottom.Lateral			L.Shank.Bottom.Medial			L.Shank.Top.Lateral			L.Shank.Top.Medial			L.Thigh.Bottom.Lateral			L.Thigh.Bottom.Medial			L.Thigh.Top.Lateral			L.Thigh.Top.Medial			L.TT			R.Ankle			R.Ankle.Medial			R.ASIS			R.GTR			R.Heel.Bottom			R.Heel.Lateral			R.Heel.Top			R.HF			R.Iliac.Crest			R.Knee			R.Knee.Medial			R.MT1			R.MT2			R.MT5			R.PSIS			R.Shank.Bottom.Lateral			R.Shank.Bottom.Medial			R.Shank.Top.Lateral			R.Shank.Top.Medial			R.Thigh.Bottom.Lateral			R.Thigh.Bottom.Medial			R.Thigh.Top.Lateral			R.Thigh.Top.Medial			R.TT			
		X1	Y1	Z1	X2	Y2	Z2	X3	Y3	Z3	X4	Y4	Z4	X5	Y5	Z5	X6	Y6	Z6	X7	Y7	Z7	X8	Y8	Z8	X9	Y9	Z9	X10	Y10	Z10	X11	Y11	Z11	X12	Y12	Z12	X13	Y13	Z13	X14	Y14	Z14	X15	Y15	Z15	X16	Y16	Z16	X17	Y17	Z17	X18	Y18	Z18	X19	Y19	Z19	X20	Y20	Z20	X21	Y21	Z21	X22	Y22	Z22	X23	Y23	Z23	X24	Y24	Z24	X25	Y25	Z25	X26	Y26	Z26	X27	Y27	Z27	X28	Y28	Z28	X29	Y29	Z29	X30	Y30	Z30	X31	Y31	Z31	X32	Y32	Z32	X33	Y33	Z33	X34	Y34	Z34	X35	Y35	Z35	X36	Y36	Z36	X37	Y37	Z37	X38	Y38	Z38	X39	Y39	Z39	X40	Y40	Z40	X41	Y41	Z41	X42	Y42	Z42	X43	Y43	Z43	X44	Y44	Z44	X45	Y45	Z45	X46	Y46	Z46	X47	Y47	Z47	X48	Y48	Z48	

94	0.62	708.8596801757813	102.7043380737305	1034.652221679688	735.0466918945313	121.9922409057617	1117.460083007813	831.9215087890625	1063.850341796875	1125.610473632813	767.2279663085938	977.12548828125	1062.886962890625	639.4342651367188	41.34314727783203	1077.9609375	668.7733154296875	61.47272109985352	1039.513427734375	649.908447265625	87.6785888671875	1080.180297851563	712.8543090820313	481.4628601074219	1033.900634765625	750.5904541015625	1125.999755859375	1073.48583984375	725.1989135742188	553.1485595703125	1046.282348632813	716.7634887695313	529.2017822265625	1164.30322265625	860.6920776367188	53.49063110351563	1126.322265625	872.4965209960938	69.55770874023438	1082.891479492188	834.9330444335938	45.14196395874023	1010.44384765625	647.66943359375	1079.953369140625	1173.891357421875	714.4407958984375	178.8116760253906	1030.430786132813	672.111572265625	171.4790802001953	1058.281372070313	697.6288452148438	257.9579772949219	1019.489013671875	655.3798217773438	254.7732696533203	1050.612670898438	735.3973999023438	713.08447265625	1031.400268554688	674.43017578125	714.1357421875	1069.359375	734.8357543945313	823.3602905273438	1033.738647460938	679.5419921875	824.3336791992188	1073.723999023438	771.8668823242188	462.8100891113281	1081.5390625	698.5603637695313	105.0686874389648	1420.116455078125	731.3707885742188	123.1232986450195	1339.965576171875	826.8353271484375	1068.013061523438	1341.202270507813	747.6200561523438	970.432373046875	1402.775024414063	632.3475341796875	40.73501968383789	1373.818969726563	662.1610107421875	58.51945877075195	1416.94189453125	642.5642700195313	87.93026733398438	1373.4072265625	725.966552734375	492.9682312011719	1416.491821289063	740.3821411132813	1139.852783203125	1379.998046875	727.7841186523438	558.9178466796875	1409.759521484375	742.2891235351563	538.7601928710938	1291.614624023438	854.353515625	53.91851043701172	1331.199829101563	862.98828125	71.0089111328125	1376.110595703125	829.0440063476563	47.41047286987305	1447.177001953125	645.2152099609375	1086.150390625	1282.581176757813	708.4276733398438	185.6768646240234	1426.302124023438	662.2884521484375	184.8243103027344	1395.215698242188	698.2313232421875	265.6661071777344	1437.238403320313	653.8286743164063	264.1420288085938	1406.21826171875	716.5529174804688	681.4428100585938	1418.228759765625	667.4740600585938	676.044677734375	1363.535400390625	705.5007934570313	790.5473022460938	1413.141967773438	660.8341674804688	785.6342163085938	1360.4697265625	779.79736328125	464.74951171875	1371.05078125	
95	0.6266666666666667	708.8597412109375	102.702507019043	1034.649780273438	735.0304565429688	121.8812484741211	1117.493896484375	831.940185546875	1063.844482421875	1125.6083984375	767.2347412109375	977.1331176757813	1062.889770507813	639.442138671875	41.34013366699219	1077.950073242188	668.7807006835938	61.47364044189453	1039.505615234375	649.9153442382813	87.68218231201172	1080.172485351563	712.8660888671875	481.4633483886719	1033.891723632813	750.5994873046875	1126.006713867188	1073.47021484375	725.2175903320313	553.1514892578125	1046.291015625	716.7892456054688	529.213134765625	1164.304077148438	860.693359375	53.49333190917969	1126.326416015625	872.4911499023438	69.55936431884766	1082.901489257813	834.937255859375	45.14580535888672	1010.442932128906	647.6942138671875	1079.956420898438	1173.8740234375	714.4483642578125	178.8147430419922	1030.4296875	672.1246948242188	171.4853820800781	1058.274047851563	697.6414794921875	257.9558410644531	1019.490173339844	655.3925170898438	254.780517578125	1050.606079101563	735.4197998046875	713.0814819335938	1031.399658203125	674.4583740234375	714.1323852539063	1069.358520507813	734.8543701171875	823.3662719726563	1033.738159179688	679.557373046875	824.33642578125	1073.715454101563	771.8818359375	462.8051452636719	1081.52587890625	698.5796508789063	105.0656356811523	1420.103759765625	731.3798217773438	123.1238555908203	1339.96630859375	826.8562622070313	1068.011962890625	1341.207275390625	747.635986328125	970.4412841796875	1402.771118164063	632.3499145507813	40.74844741821289	1373.807006835938	662.1554565429688	58.52057647705078	1416.930908203125	642.5640869140625	87.92820739746094	1373.410522460938	725.974365234375	492.9591369628906	1416.480712890625	740.3936157226563	1139.831665039063	1379.990844726563	727.8029174804688	558.904052734375	1409.750244140625	742.2900390625	538.7633056640625	1291.604248046875	854.3310546875	53.80072021484375	1331.43603515625	862.9913330078125	71.01450347900391	1376.104736328125	829.05419921875	47.40682601928711	1447.172973632813	645.2288208007813	1086.15185546875	1282.580322265625	708.4400024414063	185.6757965087891	1426.303466796875	662.293212890625	184.8273315429688	1395.212524414063	698.2503051757813	265.6605224609375	1437.229858398438	653.83203125	264.1463928222656	1406.217529296875	716.5707397460938	681.44287109375	1418.224243164063	667.488037109375	676.044921875	1363.546997070313	705.5260620117188	790.5512084960938	1413.144287109375	660.8582153320313	785.62353515625	1360.477661132813	779.800537109375	464.7435913085938	1371.044555664063	
96	0.6333333333333334	708.8561401367188	102.7081756591797	1034.644409179688	735.0239868164063	121.8826599121094	1117.49072265625	831.9658203125	1063.832885742188	1125.603149414063	767.2454223632813	977.1312866210938	1062.88427734375	639.4407348632813	41.34688186645508	1077.953002929688	668.7741088867188	61.47553253173828	1039.517333984375	649.9114379882813	87.69232177734375	1080.16455078125	712.8834838867188	481.4654846191406	1033.886474609375	750.624267578125	1125.9921875	1073.471313476563	725.2425537109375	553.1521606445313	1046.2822265625	716.803466796875	529.2161865234375	1164.30078125	860.6918334960938	53.48823165893555	1126.326171875	872.4960327148438	69.55696105957031	1082.898071289063	834.9307250976563	45.14328002929688	1010.439697265625	647.7033081054688	1079.955932617188	1173.874633789063	714.4475708007813	178.8188323974609	1030.425537109375	672.1238403320313	171.4741973876953	1058.264526367188	697.6490478515625	257.9640502929688	1019.482116699219	655.4057006835938	254.787109375	1050.599609375	735.436279296875	713.0834350585938	1031.390258789063	674.475830078125	714.1404418945313	1069.346313476563	734.8754272460938	823.3665161132813	1033.734985351563	679.5796508789063	824.3341064453125	1073.7119140625	771.8809204101563	462.8036499023438	1081.514892578125	698.5750122070313	105.0625	1420.098388671875	731.3740234375	123.1244735717773	1339.960571289063	826.8658447265625	1068.01220703125	1341.205200195313	747.645263671875	970.4290161132813	1402.781616210938	632.3468627929688	40.75102615356445	1373.812377929688	662.1626586914063	58.52395248413086	1416.938720703125	642.5693359375	87.92676544189453	1373.404907226563	725.996826171875	492.9676818847656	1416.484375	740.4053344726563	1139.85205078125	1379.997924804688	727.81884765625	558.912353515625	1409.755493164063	742.3126831054688	538.7584838867188	1291.596801757813	854.3242797851563	53.80443954467773	1331.442138671875	862.9857788085938	71.01194000244141	1376.114501953125	829.0541381835938	47.40613174438477	1447.173461914063	645.2520751953125	1086.14697265625	1282.580810546875	708.4426879882813	185.6718444824219	1426.304565429688	662.2982788085938	184.8262786865234	1395.219116210938	698.257080078125	265.6555480957031	1437.234497070313	653.8455200195313	264.1466674804688	1406.217407226563	716.5975341796875	681.4393310546875	1418.233032226563	667.5099487304688	676.041015625	1363.550659179688	705.5509643554688	790.5494384765625	1413.140014648438	660.883544921875	785.62255859375	1360.480346679688	779.8175048828125	464.7447814941406	1371.049682617188	
97	0.64	708.8507080078125	102.7066345214844	1034.64599609375	735.0294189453125	121.8764419555664	1117.4970703125	831.9968872070313	1063.844116210938	1125.598754882813	767.2818603515625	977.1277465820313	1062.884521484375	639.4319458007813	41.34269332885742	1077.95947265625	668.7760009765625	61.47550964355469	1039.515380859375	649.9166870117188	87.68245697021484	1080.165893554688	712.902587890625	481.4609680175781	1033.883544921875	750.6373291015625	1125.991333007813	1073.465454101563	725.2581176757813	553.1465454101563	1046.275512695313	716.8139038085938	529.2095947265625	1164.300537109375	860.697265625	53.49351501464844	1126.317626953125	872.4938354492188	69.56208038330078	1082.900024414063	834.9210205078125	45.14284515380859	1010.436706542969	647.7243041992188	1079.95361328125	1173.872314453125	714.44921875	178.8226776123047	1030.418823242188	672.1317749023438	171.4880828857422	1058.261596679688	697.6574096679688	257.9676818847656	1019.471008300781	655.4091186523438	254.7857971191406	1050.591552734375	735.4546508789063	713.08447265625	1031.391357421875	674.4973754882813	714.1405029296875	1069.347412109375	734.8973999023438	823.3716430664063	1033.728515625	679.6069946289063	824.3347778320313	1073.704956054688	771.8931884765625	462.8014221191406	1081.513793945313	698.5723876953125	105.0591354370117	1420.088989257813	731.3785400390625	123.1340866088867	1339.956176757813	826.8799438476563	1068.00439453125	1341.209106445313	747.6668701171875	970.4326782226563	1402.767456054688	632.3470458984375	40.74764633178711	1373.816040039063	662.1646728515625	58.51972198486328	1416.92822265625	642.5675659179688	87.92963409423828	1373.408935546875	726.009033203125	492.9552612304688	1416.47509765625	740.4137573242188	1139.846069335938	1379.989501953125	727.8369140625	558.9140625	1409.753051757813	742.3201904296875	538.762451171875	1291.597045898438	854.3361206054688	53.8056755065918	1331.441162109375	862.9881591796875	71.00905609130859	1376.113525390625	829.058837890625	47.40846252441406	1447.169799804688	645.2640991210938	1086.149169921875	1282.569458007813	708.4464721679688	185.6785583496094	1426.300170898438	662.3007202148438	184.8261260986328	1395.214599609375	698.2722778320313	265.6614685058594	1437.230712890625	653.85546875	264.1513977050781	1406.218627929688	716.614501953125	681.4472045898438	1418.232788085938	667.524658203125	676.0488891601563	1363.552001953125	705.5692138671875	790.5474243164063	1413.144409179688	660.9053344726563	785.6268310546875	1360.484619140625	779.826904296875	464.7368774414063	1371.058471679688	
